<svg version="1.1" xmlns="http://www.w3.org/2000/svg" xmlns:xlink="http://www.w3.org/1999/xlink" width="436" height="314" viewBox="0,0,436,314"><defs><radialGradient cx="78.25" cy="78.25" r="18.32927" gradientUnits="userSpaceOnUse" id="color-1"><stop offset="0" stop-color="#ff0000"/><stop offset="1" stop-color="#000000"/></radialGradient><radialGradient cx="263.73703" cy="84.03501" r="114.86633" gradientTransform="translate(-120.12846,-76.9355) scale(0.83576,0.83576)" gradientUnits="userSpaceOnUse" id="color-2"><stop offset="0" stop-color="#ffffff"/><stop offset="1" stop-color="#4b4b4b"/></radialGradient></defs><g transform="translate(-22,-23)"><g data-paper-data="{&quot;isPaintingLayer&quot;:true}" fill-rule="nonzero" stroke-linecap="butt" stroke-linejoin="miter" stroke-miterlimit="10" stroke-dasharray="" stroke-dashoffset="0" style="mix-blend-mode: normal"><path d="M22.5,336.5v-313h435v313z" fill="#4a4a4a" stroke="#000000" stroke-width="1"/><path d="M56.26396,114.94795l-14.71191,-58.68398l58.68398,-14.71191l14.71191,58.68398z" fill="#000000" stroke="none" stroke-width="0"/><path d="M58.29505,110.89637l-6.65319,-26.53874l26.53874,-6.65319l6.65319,26.53874z" fill="#ffffff" stroke="none" stroke-width="0"/><path d="M60.47092,82.70717c-2.46162,-9.81912 3.5028,-19.77463 13.32192,-22.23625c9.81912,-2.46162 19.77463,3.5028 22.23625,13.32192c2.46162,9.81912 -3.5028,19.77463 -13.32192,22.23625c-9.81912,2.46162 -19.77463,-3.5028 -22.23625,-13.32192z" fill="url(#color-1)" stroke="none" stroke-width="0"/><text transform="translate(143.7361,92.05487) scale(1.19652,1.19652)" font-size="40" xml:space="preserve" fill="url(#color-2)" fill-rule="nonzero" stroke="none" stroke-width="1" stroke-linecap="butt" stroke-linejoin="miter" stroke-miterlimit="10" stroke-dasharray="" stroke-dashoffset="0" font-family="&quot;CourierPrime-Italic&quot;, Sans Serif" font-weight="normal" text-anchor="start" style="mix-blend-mode: normal"><tspan x="0" dy="0">PASSWORD</tspan></text><text transform="translate(31.69124,140.39094) scale(0.43398,0.43398)" font-size="40" xml:space="preserve" data-paper-data="{&quot;index&quot;:null}" fill="#ff0000" fill-rule="nonzero" stroke="none" stroke-width="1" stroke-linecap="butt" stroke-linejoin="miter" stroke-miterlimit="10" stroke-dasharray="" stroke-dashoffset="0" font-family="&quot;CourierPrime-Italic&quot;, Sans Serif" font-weight="normal" text-anchor="start" style="mix-blend-mode: normal"><tspan x="0" dy="0">I solemnly swear that I am up to no good</tspan><tspan x="0" dy="46.150000000000006px">私は悪事を企んでいることを厳粛に誓います</tspan><tspan x="0" dy="46.150000000000006px"> </tspan></text></g></g></svg>